<svg width="133" height="34" viewBox="0 0 133 34" fill="none" xmlns="http://www.w3.org/2000/svg">
<path d="M19.7297 16.0678C19.744 14.9549 20.0396 13.8637 20.589 12.8958C21.1384 11.9278 21.9236 11.1146 22.8718 10.5317C22.2695 9.67146 21.4749 8.96354 20.5511 8.46414C19.6273 7.96474 18.5998 7.68761 17.5502 7.65477C15.3112 7.41976 13.1406 8.99454 11.9997 8.99454C10.8367 8.99454 9.08 7.6781 7.18836 7.71702C5.96479 7.75655 4.77233 8.11236 3.72716 8.74977C2.68199 9.38718 1.81975 10.2845 1.22446 11.3542C-1.3542 15.8187 0.569248 22.3801 3.0394 25.989C4.27526 27.7561 5.71964 29.73 7.60957 29.66C9.45898 29.5833 10.1497 28.4807 12.3821 28.4807C14.5938 28.4807 15.2418 29.66 17.1701 29.6155C19.1546 29.5833 20.4049 27.8405 21.5975 26.0567C22.4854 24.7975 23.1687 23.4059 23.622 21.9333C22.4691 21.4457 21.4852 20.6294 20.793 19.5864C20.1008 18.5433 19.731 17.3196 19.7297 16.0678Z" fill="black"/>
<path d="M16.0875 5.28136C17.1696 3.98241 17.7026 2.31284 17.5736 0.627197C15.9204 0.800825 14.3934 1.5909 13.2968 2.84001C12.7606 3.45023 12.3499 4.16015 12.0883 4.92917C11.8266 5.6982 11.7191 6.51125 11.7718 7.32186C12.5987 7.33038 13.4167 7.15116 14.1642 6.79771C14.9118 6.44426 15.5694 5.92579 16.0875 5.28136Z" fill="black"/>
<path d="M43.1076 25.1863H36.7964L35.2808 29.6616H32.6076L38.5855 13.1042H41.3628L47.3407 29.6616H44.6219L43.1076 25.1863ZM37.45 23.1212H42.4527L39.9866 15.8582H39.9176L37.45 23.1212Z" fill="black"/>
<path d="M60.2508 23.6264C60.2508 27.3777 58.243 29.7879 55.2131 29.7879C54.4455 29.828 53.6822 29.6512 53.0105 29.2777C52.3388 28.9042 51.7858 28.3491 51.4149 27.6759H51.3576V33.6551H48.8797V17.59H51.2782V19.5978H51.3238C51.7117 18.9278 52.274 18.3756 52.9508 17.9998C53.6277 17.624 54.3937 17.4387 55.1675 17.4637C58.2313 17.4637 60.2508 19.8855 60.2508 23.6264ZM57.704 23.6264C57.704 21.1824 56.4409 19.5756 54.5138 19.5756C52.6206 19.5756 51.3472 21.2163 51.3472 23.6264C51.3472 26.0587 52.6206 27.6876 54.5138 27.6876C56.4409 27.6876 57.704 26.0926 57.704 23.6264Z" fill="black"/>
<path d="M73.5373 23.6264C73.5373 27.3777 71.5295 29.7879 68.4996 29.7879C67.732 29.828 66.9687 29.6512 66.297 29.2777C65.6253 28.9042 65.0723 28.349 64.7014 27.6759H64.6441V33.655H62.1662V17.5899H64.5646V19.5978H64.6102C64.9981 18.9278 65.5604 18.3756 66.2373 17.9998C66.9141 17.624 67.6802 17.4387 68.454 17.4637C71.5178 17.4637 73.5373 19.8855 73.5373 23.6264ZM70.9905 23.6264C70.9905 21.1824 69.7274 19.5756 67.8003 19.5756C65.9071 19.5756 64.6337 21.2163 64.6337 23.6264C64.6337 26.0587 65.9071 27.6876 67.8003 27.6876C69.7274 27.6876 70.9905 26.0926 70.9905 23.6264H70.9905Z" fill="black"/>
<path d="M82.3185 25.0482C82.5021 26.6902 84.0971 27.7682 86.2768 27.7682C88.3654 27.7682 89.868 26.6901 89.868 25.2096C89.868 23.9245 88.9617 23.155 86.8159 22.6276L84.6701 22.1107C81.6297 21.3763 80.2182 19.9544 80.2182 17.6471C80.2182 14.7904 82.7078 12.8281 86.243 12.8281C89.7416 12.8281 92.1401 14.7904 92.2208 17.6471H89.7195C89.5698 15.9948 88.2039 14.9974 86.2078 14.9974C84.2117 14.9974 82.8458 16.0065 82.8458 17.4753C82.8458 18.6458 83.7182 19.3346 85.8523 19.8619L87.6765 20.3099C91.0736 21.1132 92.4851 22.4779 92.4851 24.8997C92.4851 27.9974 90.0177 29.9375 86.0932 29.9375C82.4213 29.9375 79.9421 28.0429 79.782 25.0481L82.3185 25.0482Z" fill="black"/>
<path d="M97.8329 14.7332V17.5899H100.128V19.5522H97.8329V26.2071C97.8329 27.241 98.2925 27.7227 99.3016 27.7227C99.5741 27.718 99.8462 27.6989 100.117 27.6654V29.6159C99.663 29.7007 99.2019 29.7391 98.7404 29.7305C96.2964 29.7305 95.3433 28.8125 95.3433 26.4714V19.5522H93.5881V17.5899H95.3432V14.7332H97.8329Z" fill="black"/>
<path d="M101.458 23.6265C101.458 19.8284 103.695 17.4417 107.183 17.4417C110.683 17.4417 112.91 19.8283 112.91 23.6265C112.91 27.4351 110.695 29.8114 107.183 29.8114C103.673 29.8114 101.458 27.4351 101.458 23.6265ZM110.385 23.6265C110.385 21.0211 109.191 19.4833 107.183 19.4833C105.175 19.4833 103.983 21.0328 103.983 23.6265C103.983 26.2424 105.175 27.7685 107.183 27.7685C109.191 27.7685 110.385 26.2424 110.385 23.6265H110.385Z" fill="black"/>
<path d="M114.953 17.5898H117.316V19.6445H117.373C117.533 19.0028 117.909 18.4357 118.438 18.0385C118.967 17.6413 119.616 17.4383 120.277 17.4635C120.562 17.4625 120.847 17.4935 121.126 17.556V19.8737C120.765 19.7635 120.389 19.713 120.013 19.724C119.653 19.7093 119.294 19.7728 118.961 19.91C118.627 20.0472 118.328 20.2548 118.083 20.5187C117.837 20.7825 117.652 21.0963 117.539 21.4386C117.427 21.7808 117.39 22.1433 117.431 22.5013V29.6614H114.953L114.953 17.5898Z" fill="black"/>
<path d="M132.55 26.1161C132.217 28.3075 130.083 29.8114 127.352 29.8114C123.841 29.8114 121.661 27.4586 121.661 23.6838C121.661 19.8974 123.852 17.4417 127.248 17.4417C130.588 17.4417 132.688 19.7359 132.688 23.3961V24.245H124.162V24.3948C124.123 24.839 124.179 25.2866 124.325 25.7077C124.472 26.1288 124.707 26.5139 125.014 26.8373C125.321 27.1607 125.694 27.415 126.107 27.5834C126.52 27.7518 126.964 27.8304 127.41 27.814C127.995 27.8689 128.583 27.7333 129.085 27.4274C129.587 27.1214 129.977 26.6616 130.197 26.1161L132.55 26.1161ZM124.174 22.5133H130.209C130.231 22.1138 130.171 21.7141 130.031 21.3391C129.892 20.9642 129.676 20.6221 129.398 20.3344C129.12 20.0467 128.786 19.8196 128.416 19.6673C128.046 19.515 127.648 19.4409 127.248 19.4495C126.845 19.4471 126.445 19.5246 126.071 19.6776C125.698 19.8306 125.359 20.056 125.073 20.3408C124.787 20.6257 124.56 20.9643 124.406 21.3372C124.252 21.71 124.173 22.1098 124.174 22.5133V22.5133Z" fill="black"/>
<path d="M37.1395 0.641596C37.659 0.604317 38.1803 0.682797 38.6658 0.871374C39.1512 1.05995 39.5888 1.35393 39.9469 1.73209C40.305 2.11026 40.5748 2.56319 40.7366 3.05822C40.8985 3.55325 40.9485 4.07803 40.883 4.59472C40.883 7.13638 39.5093 8.59738 37.1395 8.59738H34.2658V0.641596H37.1395ZM35.5015 7.47226H37.0015C37.3727 7.49445 37.7442 7.43359 38.0889 7.2941C38.4336 7.15462 38.7429 6.94002 38.9942 6.66593C39.2455 6.39184 39.4326 6.06517 39.5417 5.70967C39.6509 5.35418 39.6794 4.97883 39.6252 4.61093C39.6754 4.24448 39.644 3.87146 39.5332 3.51857C39.4224 3.16569 39.2349 2.84168 38.9841 2.56977C38.7334 2.29787 38.4256 2.08479 38.0828 1.94581C37.7401 1.80683 37.3708 1.74538 37.0015 1.76588H35.5015V7.47226Z" fill="black"/>
<path d="M42.2788 5.59246C42.241 5.19791 42.2862 4.79982 42.4113 4.42372C42.5364 4.04763 42.7387 3.70184 43.0053 3.40853C43.2719 3.11522 43.5969 2.88087 43.9593 2.7205C44.3218 2.56013 44.7138 2.47729 45.1102 2.47729C45.5065 2.47729 45.8985 2.56013 46.261 2.7205C46.6234 2.88087 46.9484 3.11522 47.215 3.40853C47.4816 3.70184 47.6839 4.04763 47.809 4.42372C47.9341 4.79982 47.9793 5.19791 47.9415 5.59246C47.98 5.98743 47.9354 6.38607 47.8106 6.76277C47.6858 7.13947 47.4836 7.48589 47.2169 7.77978C46.9503 8.07366 46.6251 8.30851 46.2623 8.46922C45.8994 8.62994 45.507 8.71296 45.1102 8.71296C44.7133 8.71296 44.3209 8.62994 43.958 8.46922C43.5952 8.30851 43.27 8.07366 43.0034 7.77978C42.7367 7.48589 42.5345 7.13947 42.4097 6.76277C42.2849 6.38607 42.2403 5.98743 42.2788 5.59246ZM46.7228 5.59246C46.7228 4.29104 46.1381 3.52997 45.1121 3.52997C44.0822 3.52997 43.5028 4.29104 43.5028 5.59248C43.5028 6.90433 44.0822 7.65953 45.1121 7.65953C46.1382 7.65952 46.7228 6.8991 46.7228 5.59246H46.7228Z" fill="black"/>
<path d="M55.4689 8.59717H54.2398L52.9989 4.17529H52.9051L51.6695 8.59717H50.452L48.7971 2.59326H49.9989L51.0744 7.1746H51.163L52.3973 2.59326H53.534L54.7684 7.1746H54.8622L55.9325 2.59326H57.1174L55.4689 8.59717Z" fill="black"/>
<path d="M58.5093 2.59324H59.6499V3.54701H59.7385C59.8887 3.20445 60.142 2.91729 60.4632 2.72555C60.7843 2.53381 61.1573 2.44704 61.5301 2.47735C61.8223 2.45538 62.1156 2.49943 62.3884 2.60622C62.6612 2.71302 62.9064 2.87982 63.106 3.09428C63.3056 3.30874 63.4544 3.56536 63.5413 3.84512C63.6282 4.12488 63.6511 4.42061 63.6082 4.71041V8.59708H62.4233V5.00796C62.4233 4.04312 62.0041 3.56329 61.1278 3.56329C60.9294 3.55406 60.7314 3.58781 60.5474 3.66225C60.3633 3.73669 60.1975 3.85006 60.0613 3.99457C59.9251 4.13908 59.8218 4.31133 59.7585 4.4995C59.6951 4.68768 59.6732 4.88733 59.6942 5.08477V8.59715H58.5093L58.5093 2.59324Z" fill="black"/>
<path d="M65.4963 0.249512H66.6812V8.59717H65.4963V0.249512Z" fill="black"/>
<path d="M68.3283 5.59258C68.2906 5.19799 68.3358 4.79988 68.4609 4.42377C68.5861 4.04767 68.7884 3.70187 69.055 3.40855C69.3217 3.11523 69.6466 2.88088 70.0091 2.72051C70.3716 2.56014 70.7636 2.47729 71.16 2.47729C71.5564 2.47729 71.9484 2.56014 72.3109 2.72051C72.6734 2.88088 72.9984 3.11523 73.265 3.40855C73.5316 3.70187 73.734 4.04767 73.8591 4.42377C73.9843 4.79988 74.0294 5.19799 73.9917 5.59258C74.0301 5.98756 73.9855 6.3862 73.8607 6.7629C73.7358 7.1396 73.5336 7.48601 73.2669 7.77989C73.0002 8.07377 72.675 8.30861 72.3122 8.46931C71.9493 8.63002 71.5569 8.71304 71.16 8.71304C70.7632 8.71304 70.3707 8.63002 70.0079 8.46931C69.645 8.30861 69.3198 8.07377 69.0531 7.77989C68.7864 7.48601 68.5842 7.1396 68.4594 6.7629C68.3345 6.3862 68.2899 5.98756 68.3283 5.59258ZM72.7723 5.59258C72.7723 4.29115 72.1877 3.53008 71.1616 3.53008C70.1317 3.53008 69.5523 4.29115 69.5523 5.59259C69.5523 6.90444 70.1317 7.65964 71.1616 7.65964C72.1877 7.65963 72.7723 6.89922 72.7723 5.59258H72.7723Z" fill="black"/>
<path d="M75.2391 6.89916C75.2391 5.81843 76.0438 5.19539 77.4721 5.10684L79.0984 5.0131V4.49487C79.0984 3.86075 78.6792 3.50268 77.8693 3.50268C77.2078 3.50268 76.7495 3.74552 76.618 4.17H75.4708C75.5919 3.13875 76.562 2.47729 77.924 2.47729C79.4292 2.47729 80.2781 3.22663 80.2781 4.49487V8.59708H79.1375V7.75333H79.0438C78.8535 8.05599 78.5863 8.30272 78.2694 8.46834C77.9526 8.63395 77.5975 8.71251 77.2404 8.696C76.9883 8.72222 76.7336 8.69533 76.4926 8.61706C76.2516 8.5388 76.0296 8.4109 75.8411 8.2416C75.6525 8.07231 75.5015 7.86539 75.3978 7.63417C75.2942 7.40295 75.2401 7.15256 75.2391 6.89916ZM79.0984 6.38613V5.88419L77.6323 5.97794C76.8055 6.03327 76.4305 6.31452 76.4305 6.84381C76.4305 7.38417 76.8992 7.69863 77.5438 7.69863C77.7327 7.71775 77.9234 7.69868 78.1048 7.64256C78.2861 7.58644 78.4543 7.49441 78.5994 7.37196C78.7444 7.2495 78.8633 7.09912 78.9491 6.92976C79.0348 6.7604 79.0856 6.57553 79.0984 6.38613Z" fill="black"/>
<path d="M81.8354 5.59263C81.8354 3.6955 82.8107 2.49367 84.3276 2.49367C84.7029 2.47638 85.0753 2.56625 85.4013 2.75278C85.7273 2.93931 85.9935 3.21478 86.1688 3.547H86.2573V0.249512H87.4422V8.59716H86.3068V7.64859H86.2131C86.0243 7.97858 85.7488 8.25062 85.4164 8.43527C85.0841 8.61991 84.7076 8.71011 84.3276 8.69611C82.8003 8.69618 81.8354 7.49432 81.8354 5.59263ZM83.0594 5.59263C83.0594 6.86607 83.6597 7.63235 84.6636 7.63235C85.6623 7.63235 86.2795 6.85502 86.2795 5.59784C86.2795 4.34654 85.6558 3.55812 84.6636 3.55812C83.6662 3.55812 83.0594 4.3296 83.0594 5.59263H83.0594Z" fill="black"/>
<path d="M92.3446 5.59246C92.3068 5.19791 92.352 4.79982 92.4771 4.42372C92.6022 4.04763 92.8045 3.70184 93.0711 3.40853C93.3377 3.11522 93.6627 2.88087 94.0251 2.7205C94.3876 2.56013 94.7796 2.47729 95.1759 2.47729C95.5723 2.47729 95.9643 2.56013 96.3268 2.7205C96.6892 2.88087 97.0142 3.11522 97.2808 3.40853C97.5473 3.70184 97.7497 4.04763 97.8748 4.42372C97.9999 4.79982 98.0451 5.19791 98.0073 5.59246C98.0458 5.98743 98.0012 6.38607 97.8764 6.76277C97.7516 7.13947 97.5494 7.48589 97.2827 7.77978C97.0161 8.07366 96.6909 8.30851 96.328 8.46922C95.9652 8.62994 95.5728 8.71296 95.1759 8.71296C94.7791 8.71296 94.3867 8.62994 94.0238 8.46922C93.661 8.30851 93.3358 8.07366 93.0692 7.77978C92.8025 7.48589 92.6003 7.13947 92.4755 6.76277C92.3507 6.38607 92.3061 5.98743 92.3446 5.59246ZM96.7886 5.59246C96.7886 4.29104 96.2039 3.52997 95.1779 3.52997C94.148 3.52997 93.5686 4.29104 93.5686 5.59248C93.5686 6.90433 94.148 7.65953 95.1779 7.65953C96.2039 7.65952 96.7886 6.8991 96.7886 5.59246Z" fill="black"/>
<path d="M99.5972 2.59324H100.738V3.54701H100.826C100.977 3.20445 101.23 2.91729 101.551 2.72555C101.872 2.53381 102.245 2.44704 102.618 2.47735C102.91 2.45538 103.203 2.49943 103.476 2.60622C103.749 2.71302 103.994 2.87982 104.194 3.09428C104.393 3.30874 104.542 3.56536 104.629 3.84512C104.716 4.12488 104.739 4.42061 104.696 4.71041V8.59708H103.511V5.00796C103.511 4.04312 103.092 3.56329 102.216 3.56329C102.017 3.55406 101.819 3.58781 101.635 3.66225C101.451 3.73669 101.285 3.85006 101.149 3.99457C101.013 4.13908 100.91 4.31133 100.846 4.4995C100.783 4.68768 100.761 4.88733 100.782 5.08477V8.59715H99.5972V2.59324Z" fill="black"/>
<path d="M111.391 1.09863V2.62077H112.692V3.61882H111.391V6.70606C111.391 7.33496 111.651 7.61035 112.24 7.61035C112.391 7.60987 112.542 7.60074 112.692 7.583V8.56998C112.479 8.60804 112.264 8.6283 112.048 8.63052C110.73 8.63052 110.205 8.16698 110.205 7.00943V3.61876H109.252V2.62071H110.205V1.09863H111.391Z" fill="black"/>
<path d="M114.311 0.249512H115.485V3.55811H115.579C115.736 3.21235 115.997 2.92356 116.324 2.7311C116.652 2.53864 117.031 2.45186 117.41 2.48259C117.7 2.46678 117.991 2.5153 118.26 2.62469C118.53 2.73408 118.772 2.90164 118.97 3.11542C119.167 3.32921 119.315 3.58394 119.403 3.86145C119.491 4.13897 119.516 4.43242 119.477 4.72087V8.59718H118.291V5.01318C118.291 4.05419 117.845 3.56851 117.007 3.56851C116.804 3.55181 116.599 3.57981 116.407 3.65054C116.215 3.72128 116.042 3.83305 115.898 3.97804C115.754 4.12302 115.643 4.29771 115.574 4.4899C115.504 4.68208 115.478 4.88711 115.496 5.09064V8.59715H114.311L114.311 0.249512Z" fill="black"/>
<path d="M126.386 6.97584C126.225 7.52456 125.876 7.99921 125.401 8.31674C124.925 8.63427 124.353 8.77447 123.785 8.71282C123.389 8.72326 122.996 8.6475 122.633 8.49079C122.269 8.33409 121.944 8.10019 121.681 7.80534C121.417 7.51049 121.22 7.16175 121.105 6.78332C120.989 6.40489 120.957 6.00584 121.011 5.61387C120.959 5.22069 120.991 4.82078 121.106 4.44122C121.222 4.06165 121.417 3.7113 121.68 3.41387C121.942 3.11644 122.265 2.87887 122.628 2.71726C122.99 2.55565 123.383 2.47377 123.779 2.47715C125.45 2.47715 126.458 3.61848 126.458 5.50382V5.91727H122.218V5.98367C122.2 6.204 122.227 6.42577 122.3 6.63477C122.372 6.84377 122.487 7.03538 122.637 7.19732C122.788 7.35926 122.971 7.48796 123.174 7.57516C123.377 7.66235 123.596 7.70612 123.817 7.70367C124.101 7.73769 124.388 7.68666 124.642 7.55705C124.896 7.42744 125.107 7.22512 125.246 6.9758L126.386 6.97584ZM122.218 5.04095H125.251C125.266 4.83945 125.238 4.63705 125.17 4.44676C125.102 4.25647 124.995 4.08249 124.856 3.93602C124.717 3.78954 124.549 3.6738 124.362 3.59623C124.176 3.51866 123.975 3.48099 123.773 3.48562C123.568 3.48304 123.365 3.52152 123.175 3.59878C122.985 3.67604 122.812 3.79052 122.668 3.93547C122.523 4.08042 122.408 4.25291 122.331 4.44277C122.254 4.63263 122.216 4.83602 122.218 5.04095H122.218Z" fill="black"/>
</svg>
