<svg width="52" height="9" viewBox="0 0 52 9" fill="none" xmlns="http://www.w3.org/2000/svg">
<path d="M8.19996 4.60922C8.19996 5.67588 7.93329 6.60922 7.26663 7.27588C6.46663 8.07588 5.5333 8.47588 4.3333 8.47588C3.1333 8.47588 2.19997 8.07588 1.39998 7.27588C0.599977 6.47588 0.199982 5.54255 0.199982 4.34255C0.199982 3.14256 0.599977 2.20922 1.39998 1.40923C2.19997 0.609228 3.1333 0.209229 4.3333 0.209229C4.86663 0.209229 5.39997 0.342561 5.9333 0.609227C6.46663 0.875894 6.86663 1.14256 7.13329 1.54256L6.46663 2.20922C5.93329 1.54256 5.26663 1.27589 4.3333 1.27589C3.5333 1.27589 2.73331 1.54256 2.19998 2.20922C1.53331 2.74256 1.26664 3.54256 1.26664 4.47589C1.26664 5.40922 1.53331 6.20922 2.19998 6.74255C2.86664 7.27588 3.5333 7.67588 4.3333 7.67588C5.26663 7.67588 5.9333 7.40922 6.59996 6.74255C6.99996 6.34255 7.26663 5.80922 7.26663 5.14255H4.3333V4.07589H8.19996V4.60922ZM14.3333 1.27589H10.7333V3.80922H14.0666V4.74255H10.7333V7.27588H14.3333V8.34255H9.66662V0.342561H14.3333V1.27589ZM18.7333 8.34255H17.6666V1.27589H15.3999V0.342561H20.9999V1.27589H18.7333V8.34255ZM24.8666 8.34255V0.342561H25.9332V8.34255H24.8666ZM30.4666 8.34255H29.3999V1.27589H27.1332V0.342561H32.5999V1.27589H30.3332V8.34255H30.4666ZM43.1332 7.27588C42.3332 8.07588 41.3999 8.47588 40.1999 8.47588C38.9999 8.47588 38.0665 8.07588 37.2665 7.27588C36.4665 6.47588 36.0665 5.54255 36.0665 4.34255C36.0665 3.14256 36.4665 2.20922 37.2665 1.40923C38.0665 0.609228 38.9999 0.209229 40.1999 0.209229C41.3999 0.209229 42.3332 0.609228 43.1332 1.40923C43.9332 2.20922 44.3332 3.14256 44.3332 4.34255C44.3332 5.54255 43.9332 6.47588 43.1332 7.27588ZM38.0665 6.60922C38.5999 7.14255 39.3999 7.54255 40.1999 7.54255C40.9999 7.54255 41.7999 7.27588 42.3332 6.60922C42.8665 6.07588 43.2665 5.27589 43.2665 4.34255C43.2665 3.40922 42.9999 2.60922 42.3332 2.07589C41.7999 1.54256 40.9999 1.14256 40.1999 1.14256C39.3999 1.14256 38.5999 1.40923 38.0665 2.07589C37.5332 2.60922 37.1332 3.40922 37.1332 4.34255C37.1332 5.27589 37.3999 6.07588 38.0665 6.60922ZM45.7998 8.34255V0.342561H46.9998L50.8665 6.60922V0.342561H51.9332V8.34255H50.8665L46.7332 1.80923V8.34255H45.7998Z" fill="black"/>
</svg>
